# xmcd
#
# Track frame offsets:
#	150
#	13652
#	27258
#	40091
#	53511
#	66113
#	80505
#	91074
#	105572
#	112870
#	125441
#	139050
#	152084
#	165189
#	179540
#	193409
#
# Disc length: 2749
#
# Revision: 2
# Processed by: cddbd v1.5.1PL0 Copyright (c) Steve Scherf et al.
# Submitted via: CDex 1.50
# Normalized: r1:TDELIM( - )
#
DISCID=c40abb10
DTITLE=Various Artist - Reefer Madness
DYEAR=1979
DGENRE=Jazz
TTITLE0=Weed - Bea Foote
TTITLE1=Cocaine - Dick Justice
TTITLE2=Willie, The Chimney Sweeper - Ernest Rodgers
TTITLE3=Reefer Head Woman - Jazz Gillum And His Jazz Boys
TTITLE4=The Mess Is Here - Cow Cow Davenport
TTITLE5=Pipe Dream Blues - Josie Miles
TTITLE6=Willie The Weeper - Frankie "Half Pint" Jackson
TTITLE7=Cocaine Blues - Luke Jordan
TTITLE8=Save The Roach For Me - Buck Washington
TTITLE9=Muggles - Louis Armstrong
TTITLE10=Kokey Joe - Mills Blue Rhythm Band
TTITLE11=Sendin' The Vipers - Mezz Mezzrow
TTITLE12=Viper's Drag - Fats Waller
TTITLE13=Viper's Dream - Quintette Of The Hot Club Of France
TTITLE14=Chant of the Weed - Don Redman
TTITLE15=Blue Reefer Blues - Richard Jones And His Jazz Wizards
EXTD=YEAR: 1979
EXTT0=
EXTT1=
EXTT2=
EXTT3=
EXTT4=
EXTT5=
EXTT6=
EXTT7=
EXTT8=
EXTT9=
EXTT10=
EXTT11=
EXTT12=
EXTT13=
EXTT14=
EXTT15=
PLAYORDER=
